<svg width="19" height="18" viewBox="0 0 19 18" fill="none" xmlns="http://www.w3.org/2000/svg">
<path d="M15.0104 0.375C16.7305 0.375 18.125 1.76944 18.125 3.48958V14.5104C18.125 16.2305 16.7305 17.625 15.0104 17.625H3.98958C2.26944 17.625 0.875 16.2305 0.875 14.5104V3.48958C0.875 1.76944 2.26944 0.375 3.98958 0.375H15.0104ZM16.6875 5.64583H2.3125V14.5104C2.3125 15.4366 3.06335 16.1875 3.98958 16.1875H15.0104C15.9366 16.1875 16.6875 15.4366 16.6875 14.5104V5.64583ZM5.42708 11.3958C6.08868 11.3958 6.625 11.9321 6.625 12.5938C6.625 13.2554 6.08868 13.7917 5.42708 13.7917C4.76549 13.7917 4.22917 13.2554 4.22917 12.5938C4.22917 11.9321 4.76549 11.3958 5.42708 11.3958ZM9.5 11.3958C10.1616 11.3958 10.6979 11.9321 10.6979 12.5938C10.6979 13.2554 10.1616 13.7917 9.5 13.7917C8.83837 13.7917 8.30208 13.2554 8.30208 12.5938C8.30208 11.9321 8.83837 11.3958 9.5 11.3958ZM5.42708 7.5625C6.08868 7.5625 6.625 8.09878 6.625 8.76042C6.625 9.42205 6.08868 9.95833 5.42708 9.95833C4.76549 9.95833 4.22917 9.42205 4.22917 8.76042C4.22917 8.09878 4.76549 7.5625 5.42708 7.5625ZM9.5 7.5625C10.1616 7.5625 10.6979 8.09878 10.6979 8.76042C10.6979 9.42205 10.1616 9.95833 9.5 9.95833C8.83837 9.95833 8.30208 9.42205 8.30208 8.76042C8.30208 8.09878 8.83837 7.5625 9.5 7.5625ZM13.5729 7.5625C14.2345 7.5625 14.7708 8.09878 14.7708 8.76042C14.7708 9.42205 14.2345 9.95833 13.5729 9.95833C12.9113 9.95833 12.375 9.42205 12.375 8.76042C12.375 8.09878 12.9113 7.5625 13.5729 7.5625ZM15.0104 1.8125H3.98958C3.06335 1.8125 2.3125 2.56335 2.3125 3.48958V4.20833H16.6875V3.48958C16.6875 2.56335 15.9366 1.8125 15.0104 1.8125Z" fill="#5273FA"/>
</svg>
