<svg width="19" height="20" viewBox="0 0 19 20" fill="none" xmlns="http://www.w3.org/2000/svg">
<path d="M15.4896 0.625C17.3593 0.625 18.875 2.1407 18.875 4.01042V15.9896C18.875 17.8593 17.3593 19.375 15.4896 19.375H3.51042C1.6407 19.375 0.125 17.8593 0.125 15.9896V4.01042C0.125 2.1407 1.6407 0.625 3.51042 0.625H15.4896ZM17.3125 6.35417H1.6875V15.9896C1.6875 16.9964 2.50365 17.8125 3.51042 17.8125H15.4896C16.4964 17.8125 17.3125 16.9964 17.3125 15.9896V6.35417ZM5.07292 12.6042C5.79204 12.6042 6.375 13.1871 6.375 13.9062C6.375 14.6254 5.79204 15.2083 5.07292 15.2083C4.35379 15.2083 3.77083 14.6254 3.77083 13.9062C3.77083 13.1871 4.35379 12.6042 5.07292 12.6042ZM9.5 12.6042C10.2192 12.6042 10.8021 13.1871 10.8021 13.9062C10.8021 14.6254 10.2192 15.2083 9.5 15.2083C8.78083 15.2083 8.19792 14.6254 8.19792 13.9062C8.19792 13.1871 8.78083 12.6042 9.5 12.6042ZM5.07292 8.4375C5.79204 8.4375 6.375 9.02042 6.375 9.73958C6.375 10.4587 5.79204 11.0417 5.07292 11.0417C4.35379 11.0417 3.77083 10.4587 3.77083 9.73958C3.77083 9.02042 4.35379 8.4375 5.07292 8.4375ZM9.5 8.4375C10.2192 8.4375 10.8021 9.02042 10.8021 9.73958C10.8021 10.4587 10.2192 11.0417 9.5 11.0417C8.78083 11.0417 8.19792 10.4587 8.19792 9.73958C8.19792 9.02042 8.78083 8.4375 9.5 8.4375ZM13.9271 8.4375C14.6462 8.4375 15.2292 9.02042 15.2292 9.73958C15.2292 10.4587 14.6462 11.0417 13.9271 11.0417C13.2079 11.0417 12.625 10.4587 12.625 9.73958C12.625 9.02042 13.2079 8.4375 13.9271 8.4375ZM15.4896 2.1875H3.51042C2.50365 2.1875 1.6875 3.00365 1.6875 4.01042V4.79167H17.3125V4.01042C17.3125 3.00365 16.4964 2.1875 15.4896 2.1875Z" fill="#BCBCBC"/>
</svg>
