<svg width="22" height="22" viewBox="0 0 22 22" fill="none" xmlns="http://www.w3.org/2000/svg">
<path d="M17.7083 0.5C19.8024 0.5 21.5 2.19758 21.5 4.29167V17.7083C21.5 19.8024 19.8024 21.5 17.7083 21.5H4.29167C2.19758 21.5 0.5 19.8024 0.5 17.7083V4.29167C0.5 2.19758 2.19758 0.5 4.29167 0.5H17.7083ZM19.75 6.91667H2.25V17.7083C2.25 18.8359 3.16408 19.75 4.29167 19.75H17.7083C18.8359 19.75 19.75 18.8359 19.75 17.7083V6.91667ZM6.04167 13.9167C6.84709 13.9167 7.5 14.5695 7.5 15.375C7.5 16.1805 6.84709 16.8333 6.04167 16.8333C5.23625 16.8333 4.58333 16.1805 4.58333 15.375C4.58333 14.5695 5.23625 13.9167 6.04167 13.9167ZM11 13.9167C11.8055 13.9167 12.4583 14.5695 12.4583 15.375C12.4583 16.1805 11.8055 16.8333 11 16.8333C10.1945 16.8333 9.54167 16.1805 9.54167 15.375C9.54167 14.5695 10.1945 13.9167 11 13.9167ZM6.04167 9.25C6.84709 9.25 7.5 9.90287 7.5 10.7083C7.5 11.5138 6.84709 12.1667 6.04167 12.1667C5.23625 12.1667 4.58333 11.5138 4.58333 10.7083C4.58333 9.90287 5.23625 9.25 6.04167 9.25ZM11 9.25C11.8055 9.25 12.4583 9.90287 12.4583 10.7083C12.4583 11.5138 11.8055 12.1667 11 12.1667C10.1945 12.1667 9.54167 11.5138 9.54167 10.7083C9.54167 9.90287 10.1945 9.25 11 9.25ZM15.9583 9.25C16.7638 9.25 17.4167 9.90287 17.4167 10.7083C17.4167 11.5138 16.7638 12.1667 15.9583 12.1667C15.1529 12.1667 14.5 11.5138 14.5 10.7083C14.5 9.90287 15.1529 9.25 15.9583 9.25ZM17.7083 2.25H4.29167C3.16408 2.25 2.25 3.16408 2.25 4.29167V5.16667H19.75V4.29167C19.75 3.16408 18.8359 2.25 17.7083 2.25Z" fill="#00295C"/>
</svg>
