<svg width="18" height="22" viewBox="0 0 18 22" fill="none" xmlns="http://www.w3.org/2000/svg">
<path d="M11.4363 10.7865C11.8499 10.1696 12.0914 9.42712 12.0914 8.62887C12.0914 6.48666 10.3547 4.75004 8.21251 4.75004C6.07027 4.75004 4.33366 6.48666 4.33366 8.62887C4.33366 10.7711 6.07027 12.5077 8.21251 12.5077C9.01074 12.5077 9.75324 12.2663 10.3701 11.8526L12.9494 14.4318L13.0192 14.4921L13.0269 14.4979C13.3222 14.7169 13.741 14.6929 14.0087 14.425C14.3031 14.1307 14.3031 13.6534 14.0087 13.359L11.4363 10.7865ZM8.21251 6.25772C9.5221 6.25772 10.5837 7.31932 10.5837 8.62887C10.5837 9.93848 9.5221 11 8.21251 11C6.90293 11 5.84134 9.93848 5.84134 8.62887C5.84134 7.31932 6.90293 6.25772 8.21251 6.25772ZM2.77116 0.583374C1.33292 0.583374 0.166992 1.7493 0.166992 3.18754V18.8125C0.166992 20.2508 1.33292 21.4167 2.77116 21.4167H16.5732C17.0047 21.4167 17.3545 21.0669 17.3545 20.6355C17.3545 20.204 17.0047 19.8542 16.5732 19.8542H2.77116C2.19587 19.8542 1.72949 19.3879 1.72949 18.8125H16.5732C17.0047 18.8125 17.3545 18.4627 17.3545 18.0313V3.18754C17.3545 1.7493 16.1886 0.583374 14.7503 0.583374H2.77116ZM15.792 17.25H1.72949V3.18754C1.72949 2.61225 2.19587 2.14587 2.77116 2.14587H14.7503C15.3256 2.14587 15.792 2.61225 15.792 3.18754V17.25Z" fill="#00295C"/>
</svg>
