<svg width="18" height="22" viewBox="0 0 18 22" fill="none" xmlns="http://www.w3.org/2000/svg">
<path d="M11.4359 10.7865C11.8496 10.1696 12.091 9.42712 12.091 8.62887C12.091 6.48666 10.3544 4.75004 8.21218 4.75004C6.06994 4.75004 4.33332 6.48666 4.33332 8.62887C4.33332 10.7711 6.06994 12.5077 8.21218 12.5077C9.01041 12.5077 9.75291 12.2663 10.3698 11.8526L12.9491 14.4318L13.0188 14.4921L13.0266 14.4979C13.3219 14.7169 13.7406 14.6929 14.0083 14.425C14.3028 14.1307 14.3028 13.6534 14.0083 13.359L11.4359 10.7865ZM8.21218 6.25772C9.52176 6.25772 10.5833 7.31932 10.5833 8.62887C10.5833 9.93848 9.52176 11 8.21218 11C6.90259 11 5.841 9.93848 5.841 8.62887C5.841 7.31932 6.90259 6.25772 8.21218 6.25772ZM2.77082 0.583374C1.33258 0.583374 0.166656 1.7493 0.166656 3.18754V18.8125C0.166656 20.2508 1.33258 21.4167 2.77082 21.4167H16.5729C17.0044 21.4167 17.3542 21.0669 17.3542 20.6355C17.3542 20.204 17.0044 19.8542 16.5729 19.8542H2.77082C2.19553 19.8542 1.72916 19.3879 1.72916 18.8125H16.5729C17.0044 18.8125 17.3542 18.4627 17.3542 18.0313V3.18754C17.3542 1.7493 16.1882 0.583374 14.75 0.583374H2.77082ZM15.7917 17.25H1.72916V3.18754C1.72916 2.61225 2.19553 2.14587 2.77082 2.14587H14.75C15.3253 2.14587 15.7917 2.61225 15.7917 3.18754V17.25Z" fill="#BCBCBC"/>
</svg>
