<svg width="21" height="22" viewBox="0 0 21 22" fill="none" xmlns="http://www.w3.org/2000/svg">
<path d="M1.8166 11C1.8166 6.11002 5.74903 2.14587 10.5999 2.14587C15.4508 2.14587 19.3833 6.11002 19.3833 11C19.3833 15.89 15.4508 19.8542 10.5999 19.8542C5.74903 19.8542 1.8166 15.89 1.8166 11ZM10.5999 0.583374C4.89299 0.583374 0.266602 5.24707 0.266602 11C0.266602 16.753 4.89299 21.4167 10.5999 21.4167C16.3068 21.4167 20.9333 16.753 20.9333 11C20.9333 5.24707 16.3068 0.583374 10.5999 0.583374ZM10.5928 5.42532C10.5416 5.04414 10.2171 4.75004 9.82493 4.75004C9.39713 4.75004 9.04993 5.10004 9.04993 5.53129V11.7813L9.05706 11.8872C9.10832 12.2685 9.43279 12.5625 9.82493 12.5625H13.9583L14.0634 12.5554C14.4416 12.5037 14.7333 12.1766 14.7333 11.7813C14.7333 11.35 14.3861 11 13.9583 11H10.5999V5.53129L10.5928 5.42532Z" fill="#00295C"/>
</svg>
