<svg width="29" height="34" viewBox="0 0 29 34" fill="none" xmlns="http://www.w3.org/2000/svg">
<path d="M14.8337 6.99998C14.325 6.99998 13.867 7.30823 13.6757 7.77951L8.25894 21.1128C7.99909 21.7525 8.30696 22.4815 8.94654 22.7413C9.58614 23.0011 10.3153 22.6933 10.5751 22.0538L11.9512 18.6666H17.7163L19.0923 22.0538C19.3522 22.6933 20.0812 23.0011 20.7208 22.7413C21.3605 22.4815 21.6683 21.7525 21.4085 21.1128L15.9918 7.77951C15.8003 7.30823 15.3423 6.99998 14.8337 6.99998ZM12.9668 16.1666L14.8337 11.5711L16.7007 16.1666H12.9668ZM0.666992 4.49998C0.666992 2.1988 2.53248 0.333313 4.83366 0.333313H24.0003C26.3015 0.333313 28.167 2.1988 28.167 4.49998V28.25C28.167 28.9403 27.6073 29.5 26.917 29.5H3.16699C3.16699 30.4205 3.91319 31.1666 4.83366 31.1666H26.917C27.6073 31.1666 28.167 31.7263 28.167 32.4166C28.167 33.107 27.6073 33.6666 26.917 33.6666H4.83366C2.53248 33.6666 0.666992 31.8011 0.666992 29.5V4.49998ZM3.16699 27H25.667V4.49998C25.667 3.57951 24.9208 2.83331 24.0003 2.83331H4.83366C3.91319 2.83331 3.16699 3.57951 3.16699 4.49998V27Z" fill="#00295C"/>
</svg>
