<svg width="9" height="19" viewBox="0 0 9 19" fill="none" xmlns="http://www.w3.org/2000/svg">
<path d="M5.69861 5.79431V4.29431C5.68435 4.18117 5.69438 4.06629 5.72815 3.95737C5.76192 3.84846 5.81865 3.74802 5.89441 3.66279C5.97017 3.57756 6.06327 3.50951 6.16748 3.46321C6.27169 3.4169 6.38451 3.39341 6.49854 3.39431H8.59863V0.294305H5.79858C5.28392 0.250355 4.76576 0.317674 4.27942 0.491691C3.79307 0.665708 3.34994 0.942348 2.97998 1.30282C2.61002 1.6633 2.32196 2.09917 2.13538 2.58083C1.94879 3.06249 1.86799 3.57867 1.89856 4.0943V5.79431H0.0986328V9.49431H1.89856V18.6943H5.59863V9.49431H8.29858L8.69861 5.79431H5.69861Z" fill="white"/>
</svg>
