<svg width="26" height="20" viewBox="0 0 26 20" fill="none" xmlns="http://www.w3.org/2000/svg">
<path d="M9.75 16.6667H16.25C17.1475 16.6667 17.875 17.4128 17.875 18.3333C17.875 19.188 17.2477 19.8925 16.4395 19.9888L16.25 20H9.75C8.85254 20 8.125 19.2538 8.125 18.3333C8.125 17.4787 8.75231 16.7742 9.56049 16.6778L9.75 16.6667ZM6.5 8.33333H19.5C20.3975 8.33333 21.125 9.0795 21.125 10C21.125 10.8547 20.4977 11.5592 19.6895 11.6555L19.5 11.6667H6.5C5.60254 11.6667 4.875 10.9205 4.875 10C4.875 9.14533 5.50232 8.44083 6.31049 8.3445L6.5 8.33333ZM1.625 0H24.375C25.2725 0 26 0.7462 26 1.66667C26 2.5214 25.3727 3.22585 24.5645 3.32212L24.375 3.33333H1.625C0.727545 3.33333 0 2.58713 0 1.66667C0 0.811933 0.627315 0.107483 1.43549 0.0112168L1.625 0Z" fill="#212121"/>
</svg>
