<svg width="71" height="71" viewBox="0 0 71 71" fill="none" xmlns="http://www.w3.org/2000/svg">
<path d="M59.9997 10.3333C65.9827 10.3333 70.833 15.1835 70.833 21.1666V59.4999C70.833 65.4829 65.9827 70.3333 59.9997 70.3333H21.6663C15.6832 70.3333 10.833 65.4829 10.833 59.4999V38.6729C12.4138 39.3319 14.0892 39.8092 15.8333 40.0786L15.833 59.4999C15.833 60.1946 15.9544 60.8609 16.1772 61.4789L35.5857 42.4766C38.3627 39.7576 42.7247 39.6283 45.6523 42.0886L46.0803 42.4769L65.4877 61.4823C65.711 60.8633 65.833 60.1959 65.833 59.4999V21.1666C65.833 17.9449 63.2213 15.3333 59.9997 15.3333L40.5783 15.3336C40.309 13.5895 39.8317 11.9141 39.1727 10.3333H59.9997ZM39.3623 45.8133L39.0837 46.0493L19.7278 65.0036C20.3343 65.2169 20.9868 65.3333 21.6663 65.3333H59.9997C60.678 65.3333 61.3293 65.2176 61.9347 65.0046L42.582 46.0493C41.6983 45.1842 40.3333 45.1053 39.3623 45.8133ZM51.6733 21.9999C55.8193 21.9999 59.1803 25.361 59.1803 29.507C59.1803 33.6529 55.8193 37.0139 51.6733 37.0139C47.5273 37.0139 44.1663 33.6529 44.1663 29.507C44.1663 25.361 47.5273 21.9999 51.6733 21.9999ZM19.1663 0.333252C29.2916 0.333252 37.4997 8.54135 37.4997 18.6666C37.4997 28.7918 29.2916 36.9999 19.1663 36.9999C9.04111 36.9999 0.833008 28.7918 0.833008 18.6666C0.833008 8.54135 9.04111 0.333252 19.1663 0.333252ZM51.6733 26.9999C50.2887 26.9999 49.1663 28.1224 49.1663 29.507C49.1663 30.8916 50.2887 32.0139 51.6733 32.0139C53.058 32.0139 54.1803 30.8916 54.1803 29.507C54.1803 28.1224 53.058 26.9999 51.6733 26.9999ZM19.1663 6.99735L18.8667 7.02422C18.1864 7.14768 17.65 7.68415 17.5265 8.36445L17.4997 8.66402L17.4985 16.9974L9.15851 16.9999L8.85891 17.0268C8.17861 17.1503 7.64217 17.6867 7.51871 18.367L7.49184 18.6666L7.51871 18.9662C7.64217 19.6465 8.17861 20.1829 8.85891 20.3064L9.15851 20.3333L17.5018 20.3307L17.5034 28.6782L17.5302 28.9778C17.6537 29.6581 18.1901 30.1946 18.8704 30.318L19.17 30.3449L19.4696 30.318C20.1499 30.1946 20.6864 29.6581 20.8098 28.9778L20.8367 28.6782L20.8352 20.3307L29.1816 20.3333L29.4811 20.3064C30.1614 20.1829 30.6979 19.6465 30.8214 18.9662L30.8483 18.6666L30.8214 18.367C30.6979 17.6867 30.1614 17.1503 29.4811 17.0268L29.1816 16.9999L20.8318 16.9974L20.833 8.66402L20.8061 8.36445C20.6827 7.68415 20.1462 7.14768 19.4659 7.02422L19.1663 6.99735Z" fill="#706E6E"/>
</svg>
