<svg width="17" height="17" viewBox="0 0 17 17" fill="none" xmlns="http://www.w3.org/2000/svg">
<path d="M8.49905 13.3943C9.49217 13.3941 10.4627 13.0981 11.287 12.5442C12.1113 11.9902 12.752 11.2034 13.1273 10.2839C13.5027 9.36442 13.5956 8.35401 13.3944 7.38147C13.1933 6.40894 12.707 5.51834 11.9977 4.82323C11.2884 4.12811 10.3882 3.65997 9.41177 3.47848C8.43537 3.297 7.42711 3.4104 6.5154 3.80421C5.6037 4.19803 4.82994 4.85443 4.29275 5.68972C3.75555 6.52502 3.47918 7.50137 3.49905 8.49429C3.49891 9.14627 3.62889 9.79172 3.88137 10.3928C4.13385 10.9939 4.50385 11.5386 4.96951 11.995C5.43516 12.4513 5.98708 12.8101 6.59316 13.0504C7.19925 13.2907 7.8472 13.4076 8.49905 13.3943ZM4.69912 8.49429C4.69912 7.48647 5.0994 6.51992 5.81204 5.80728C6.52467 5.09465 7.49122 4.69429 8.49905 4.69429C8.99347 4.69411 9.48295 4.79302 9.9385 4.98519C10.394 5.17735 10.8065 5.45887 11.1514 5.81311C11.4963 6.16735 11.7667 6.58712 11.9467 7.04763C12.1266 7.50814 12.2125 8.00005 12.1991 8.49429C12.2129 8.98393 12.1266 9.47124 11.9456 9.92638C11.7645 10.3815 11.4925 10.7949 11.1461 11.1413C10.7998 11.4877 10.3863 11.7597 9.93118 11.9408C9.47603 12.1218 8.98869 12.2081 8.49905 12.1943C8.00481 12.2077 7.5129 12.1218 7.05239 11.9419C6.59188 11.7619 6.17213 11.4915 5.81789 11.1466C5.46366 10.8017 5.18218 10.3893 4.99001 9.9337C4.79785 9.47815 4.69894 8.98871 4.69912 8.49429Z" fill="white"/>
<path d="M13.3992 16.6941H3.49915C2.61485 16.6681 1.77558 16.2984 1.15942 15.6636C0.54327 15.0288 0.198836 14.1788 0.199219 13.2941V3.59409C0.198836 2.70942 0.54327 1.85943 1.15942 1.22461C1.77558 0.58978 2.61485 0.220112 3.49915 0.194092H13.3992C14.3009 0.194092 15.1657 0.552306 15.8033 1.18993C16.441 1.82755 16.7992 2.69236 16.7992 3.59409V13.2941C16.7992 14.1958 16.441 15.0606 15.8033 15.6983C15.1657 16.3359 14.3009 16.6941 13.3992 16.6941ZM3.49915 1.49409C2.94219 1.49409 2.40811 1.71534 2.01428 2.10917C1.62046 2.50299 1.39917 3.03714 1.39917 3.59409V13.2941C1.39858 13.8606 1.61662 14.4056 2.00781 14.8154C2.39901 15.2252 2.93317 15.4683 3.49915 15.4941H13.3992C13.6881 15.4941 13.9742 15.4372 14.2411 15.3266C14.508 15.2161 14.7505 15.054 14.9548 14.8497C15.1591 14.6454 15.3212 14.4029 15.4318 14.136C15.5423 13.8691 15.5992 13.583 15.5992 13.2941V3.59409C15.5996 3.3097 15.542 3.0282 15.4303 2.76667C15.3186 2.50514 15.1549 2.26903 14.9492 2.07266C14.7435 1.87629 14.5 1.72376 14.2335 1.6243C13.9671 1.52485 13.6832 1.48055 13.3992 1.49409H3.49915Z" fill="white"/>
<path d="M13.4991 2.99417C13.3032 2.99263 13.1135 3.06305 12.9661 3.19208C12.8186 3.32111 12.7237 3.49976 12.6992 3.69416C12.6992 3.90634 12.7834 4.10982 12.9335 4.25985C13.0835 4.40988 13.287 4.49417 13.4991 4.49417C13.7113 4.49417 13.9148 4.40988 14.0648 4.25985C14.2148 4.10982 14.2992 3.90634 14.2992 3.69416C14.2747 3.49976 14.1797 3.32111 14.0322 3.19208C13.8848 3.06305 13.6951 2.99263 13.4991 2.99417Z" fill="white"/>
</svg>
