<svg width="11" height="11" viewBox="0 0 11 11" fill="none" xmlns="http://www.w3.org/2000/svg">
<path d="M2.50043 3.89996H0.200439V10.48H2.50043V3.89996Z" fill="white"/>
<path d="M1.40036 0.599971C1.22444 0.597508 1.05016 0.633715 0.889806 0.706111C0.729452 0.778508 0.586947 0.885334 0.472448 1.01892C0.357948 1.1525 0.274228 1.30958 0.227208 1.47912C0.180188 1.64866 0.171073 1.82646 0.200414 1.99993C0.25642 2.20634 0.371379 2.39197 0.531224 2.53405C0.69107 2.67614 0.888832 2.76856 1.10038 2.79998C1.24483 2.81968 1.39175 2.8107 1.53275 2.77362C1.67375 2.73654 1.80608 2.67207 1.92215 2.58386C2.03823 2.49564 2.13578 2.38544 2.20926 2.25952C2.28274 2.1336 2.33068 1.99443 2.35038 1.84997C2.37008 1.70552 2.36115 1.55859 2.32407 1.4176C2.28699 1.2766 2.22247 1.14427 2.13425 1.02819C2.04604 0.912121 1.93583 0.814564 1.80991 0.741085C1.68399 0.667606 1.54482 0.61967 1.40036 0.599971Z" fill="white"/>
<path d="M10.1004 5.89996C9.9004 4.59996 9.3004 3.89996 7.6004 3.89996C5.9004 3.89996 6.00044 3.99998 5.70044 4.59998V3.89996H3.80042V10.4H5.80042V6.99994C5.80042 6.09994 5.90043 5.49994 7.00043 5.49994C8.10043 5.49994 8.1004 6.29998 8.1004 7.09998V10.4H10.1004V5.89996Z" fill="white"/>
</svg>
