<svg width="30" height="36" viewBox="0 0 30 36" fill="none" xmlns="http://www.w3.org/2000/svg">
<path d="M15 2.83337C9.47715 2.83337 5 7.31052 5 12.8334C5 15.19 6.33588 17.7442 8.23762 20.1397C10.1114 22.4997 12.3862 24.5217 13.9473 25.7882C14.5717 26.2947 15.4283 26.2947 16.0527 25.7882C17.6138 24.5217 19.8887 22.4997 21.7623 20.1397C23.6642 17.7442 25 15.19 25 12.8334C25 7.31052 20.5228 2.83337 15 2.83337ZM2.5 12.8334C2.5 5.92981 8.09643 0.333374 15 0.333374C21.9035 0.333374 27.5 5.92981 27.5 12.8334C27.5 16.0532 25.726 19.1679 23.7203 21.694C21.6867 24.2555 19.2567 26.4082 17.6277 27.7297C16.0855 28.9809 13.9145 28.9809 12.3723 27.7297C10.7434 26.4082 8.31328 24.2555 6.27965 21.694C4.27398 19.1679 2.5 16.0532 2.5 12.8334ZM15 10.3334C13.6193 10.3334 12.5 11.4527 12.5 12.8334C12.5 14.214 13.6193 15.3334 15 15.3334C16.3807 15.3334 17.5 14.214 17.5 12.8334C17.5 11.4527 16.3807 10.3334 15 10.3334ZM10 12.8334C10 10.072 12.2385 7.83337 15 7.83337C17.7615 7.83337 20 10.072 20 12.8334C20 15.5949 17.7615 17.8334 15 17.8334C12.2385 17.8334 10 15.5949 10 12.8334ZM24.4693 23.4107C23.8638 24.131 23.2367 24.8139 22.6138 25.4504C23.2065 25.6162 23.7587 25.8 24.2645 25.9994C25.4228 26.4555 26.2753 26.9679 26.8175 27.4727C27.3578 27.976 27.5 28.3804 27.5 28.6665C27.5 28.9525 27.3578 29.3569 26.8175 29.8602C26.2753 30.365 25.4228 30.8774 24.2645 31.3335C21.9557 32.2432 18.6807 32.8332 15 32.8332C11.3194 32.8332 8.04433 32.2432 5.73543 31.3335C4.57725 30.8774 3.72462 30.365 3.18248 29.8602C2.64217 29.3569 2.5 28.9525 2.5 28.6665C2.5 28.3804 2.64217 27.976 3.18248 27.4727C3.72462 26.9679 4.57725 26.4555 5.73543 25.9994C6.24127 25.8 6.79345 25.6162 7.38613 25.4504C6.76337 24.8139 6.13613 24.131 5.53065 23.4107C5.28678 23.495 5.04948 23.5825 4.81913 23.6734C3.48907 24.1972 2.32803 24.8522 1.4786 25.6434C0.627333 26.4362 0 27.4569 0 28.6665C0 29.876 0.627333 30.8967 1.4786 31.6895C2.32803 32.4807 3.48907 33.1357 4.81913 33.6597C7.48675 34.7105 11.0867 35.3332 15 35.3332C18.9133 35.3332 22.5133 34.7105 25.1808 33.6597C26.511 33.1357 27.672 32.4807 28.5213 31.6895C29.3727 30.8967 30 29.876 30 28.6665C30 27.4569 29.3727 26.4362 28.5213 25.6434C27.672 24.8522 26.511 24.1972 25.1808 23.6734C24.9505 23.5825 24.7132 23.495 24.4693 23.4107Z" fill="#00295C"/>
</svg>
