<svg width="44" height="46" viewBox="0 0 44 46" fill="none" xmlns="http://www.w3.org/2000/svg">
<path d="M22 24.1289C14.2656 24.1289 7.97363 17.8369 7.97363 10.1035C7.97363 9.89632 8.05594 9.6976 8.20246 9.55109C8.34897 9.40458 8.54768 9.32227 8.75488 9.32227C8.96208 9.32227 9.1608 9.40458 9.30731 9.55109C9.45382 9.6976 9.53613 9.89632 9.53613 10.1035C9.53613 16.9756 15.1279 22.5664 22 22.5664C28.8721 22.5664 34.4639 16.9756 34.4639 10.1035C34.4639 9.89632 34.5462 9.6976 34.6927 9.55109C34.8392 9.40458 35.0379 9.32227 35.2451 9.32227C35.4523 9.32227 35.651 9.40458 35.7975 9.55109C35.9441 9.6976 36.0264 9.89632 36.0264 10.1035C36.0264 17.8369 29.7344 24.1289 22 24.1289Z" fill="#00295C"/>
<path d="M23.2338 19.96H20.767C20.2638 19.9594 19.7814 19.7594 19.4255 19.4037C19.0696 19.048 18.8693 18.5657 18.8685 18.0625V17.043C18.4061 16.8342 17.9658 16.5797 17.5541 16.2832L16.6752 16.792C16.239 17.043 15.7211 17.1108 15.235 16.9804C14.749 16.8501 14.3344 16.5323 14.0824 16.0967L12.849 13.9609C12.598 13.5248 12.5302 13.0069 12.6606 12.5208C12.7909 12.0347 13.1087 11.6202 13.5443 11.3682L14.4232 10.8594C14.3978 10.6064 14.3851 10.3525 14.3851 10.1006C14.3851 9.84718 14.3978 9.59393 14.4232 9.3418L13.5443 8.83301C13.1087 8.58097 12.7909 8.16645 12.6606 7.68039C12.5302 7.19432 12.598 6.6764 12.849 6.24023L14.0804 4.10645C14.3328 3.67124 14.7474 3.35379 15.2334 3.22365C15.7194 3.09351 16.2371 3.16128 16.6732 3.41211L17.5521 3.91992C17.9638 3.62342 18.4042 3.36889 18.8666 3.16016V2.14453C18.8671 1.64085 19.0675 1.15798 19.4239 0.802015C19.7802 0.446044 20.2633 0.246093 20.767 0.246094H23.2338C23.7371 0.246611 24.2197 0.44679 24.5756 0.802704C24.9315 1.15862 25.1317 1.64119 25.1322 2.14453V3.16016C25.5946 3.36889 26.035 3.62342 26.4467 3.91992L27.3256 3.41211C27.7617 3.16128 28.2794 3.09351 28.7654 3.22365C29.2514 3.35379 29.6659 3.67124 29.9183 4.10645L31.1517 6.24316C31.2768 6.45916 31.3582 6.69769 31.391 6.94513C31.4239 7.19256 31.4077 7.44405 31.3433 7.68522C31.2789 7.92638 31.1676 8.15248 31.0157 8.3506C30.8639 8.54872 30.6745 8.71497 30.4584 8.83984L29.5795 9.34863C29.6302 9.85322 29.6302 10.3616 29.5795 10.8662L30.4584 11.375C30.8941 11.6269 31.2121 12.0414 31.3425 12.5275C31.4729 13.0137 31.405 13.5317 31.1537 13.9678L29.9203 16.0996C29.6682 16.5352 29.2537 16.853 28.7677 16.9834C28.2816 17.1137 27.7637 17.0459 27.3275 16.7949L26.4486 16.2861C26.0362 16.5817 25.5952 16.8352 25.1322 17.043V18.0586C25.1325 18.5624 24.9326 19.0458 24.5766 19.4023C24.2206 19.7589 23.7376 19.9594 23.2338 19.96ZM17.6185 14.5654C17.8018 14.5657 17.9791 14.6303 18.1195 14.748C18.6546 15.1964 19.2636 15.5483 19.9193 15.7881C20.0696 15.8433 20.1992 15.9434 20.2908 16.0747C20.3823 16.2061 20.4312 16.3624 20.431 16.5225V18.0625C20.4323 18.1511 20.4681 18.2357 20.5309 18.2983C20.5936 18.3609 20.6783 18.3965 20.767 18.3975H23.2338C23.3224 18.3965 23.4071 18.3609 23.4698 18.2983C23.5326 18.2357 23.5684 18.1511 23.5697 18.0625V16.5225C23.5697 16.3624 23.6189 16.2063 23.7106 16.0751C23.8023 15.9439 23.9321 15.8441 24.0824 15.7891C24.7376 15.5485 25.3462 15.1963 25.8812 14.748C26.004 14.6454 26.1554 14.583 26.3149 14.5692C26.4743 14.5554 26.6342 14.5909 26.7728 14.6709L28.1088 15.4414C28.186 15.4851 28.2773 15.4968 28.363 15.4737C28.4487 15.4507 28.5219 15.3949 28.5668 15.3184L29.8002 13.1826C29.8437 13.1052 29.8552 13.0138 29.8322 12.928C29.8092 12.8423 29.7535 12.7689 29.6771 12.7236L28.348 11.9531C28.2096 11.8731 28.0991 11.7526 28.0313 11.6079C27.9636 11.4631 27.9419 11.3011 27.9691 11.1436C28.0876 10.4549 28.0876 9.75112 27.9691 9.0625C27.9421 8.90515 27.9639 8.7433 28.0317 8.59873C28.0994 8.45417 28.2098 8.33382 28.348 8.25391L29.682 7.4834C29.7584 7.43833 29.814 7.36513 29.837 7.27951C29.86 7.19388 29.8485 7.10265 29.8051 7.02539L28.5668 4.8877C28.5219 4.81115 28.4487 4.75534 28.363 4.73232C28.2773 4.7093 28.186 4.72091 28.1088 4.76465L26.7728 5.53613C26.6341 5.61602 26.4742 5.65137 26.3147 5.6374C26.1553 5.62343 26.0039 5.56081 25.8812 5.45801C25.3463 5.00987 24.7377 4.65797 24.0824 4.41797C23.9321 4.36295 23.8023 4.26311 23.7106 4.13194C23.6189 4.00078 23.5697 3.84461 23.5697 3.68457V2.14453C23.5684 2.05583 23.5326 1.97111 23.4699 1.90838C23.4072 1.84565 23.3225 1.80986 23.2338 1.80859H20.767C20.6783 1.80986 20.5935 1.84565 20.5308 1.90838C20.4681 1.97111 20.4323 2.05583 20.431 2.14453V3.68457C20.431 3.84461 20.3818 4.00078 20.2901 4.13194C20.1984 4.26311 20.0686 4.36295 19.9183 4.41797C19.2632 4.65819 18.6546 5.01007 18.1195 5.45801C17.9968 5.56081 17.8455 5.62343 17.686 5.6374C17.5265 5.65137 17.3666 5.61602 17.2279 5.53613L15.892 4.76465C15.8148 4.72091 15.7234 4.7093 15.6377 4.73232C15.552 4.75534 15.4788 4.81115 15.434 4.8877L14.2006 7.02441C14.1568 7.10162 14.1452 7.19294 14.1682 7.27863C14.1913 7.36433 14.2471 7.43753 14.3236 7.48242L15.6576 8.25391C15.796 8.33388 15.9065 8.45438 15.9743 8.59915C16.042 8.74391 16.0637 8.90598 16.0365 9.06348C15.918 9.7521 15.918 10.4559 16.0365 11.1445C16.0637 11.302 16.042 11.4641 15.9743 11.6089C15.9065 11.7536 15.796 11.8741 15.6576 11.9541L14.3236 12.7246C14.247 12.7697 14.1912 12.8431 14.1681 12.9289C14.1451 13.0148 14.1568 13.1062 14.2006 13.1836L15.434 15.3193C15.4788 15.3959 15.552 15.4517 15.6377 15.4747C15.7234 15.4977 15.8148 15.4861 15.892 15.4424L17.2279 14.6719C17.3465 14.6027 17.4812 14.566 17.6185 14.5654Z" fill="#00295C"/>
<path d="M22 14.0664C21.2159 14.0666 20.4494 13.8343 19.7974 13.3988C19.1454 12.9633 18.6372 12.3442 18.3371 11.6199C18.0369 10.8956 17.9584 10.0985 18.1113 9.32947C18.2642 8.56046 18.6417 7.85408 19.1961 7.29966C19.7506 6.74525 20.4569 6.36771 21.226 6.21479C21.995 6.06187 22.792 6.14046 23.5164 6.44059C24.2407 6.74073 24.8598 7.24894 25.2953 7.90094C25.7308 8.55295 25.9631 9.31946 25.9629 10.1035C25.9616 11.1541 25.5437 12.1614 24.8008 12.9043C24.0579 13.6472 23.0506 14.0651 22 14.0664ZM22 7.70215C21.525 7.70196 21.0606 7.84263 20.6656 8.10638C20.2706 8.37013 19.9626 8.7451 19.7807 9.18388C19.5988 9.62265 19.5511 10.1055 19.6437 10.5714C19.7362 11.0373 19.9649 11.4653 20.3007 11.8012C20.6365 12.1371 21.0643 12.3659 21.5302 12.4587C21.996 12.5514 22.4789 12.5039 22.9178 12.3222C23.3566 12.1405 23.7317 11.8327 23.9956 11.4377C24.2595 11.0428 24.4004 10.5785 24.4004 10.1035C24.3999 9.46696 24.1468 8.85661 23.6968 8.40641C23.2468 7.95621 22.6366 7.70293 22 7.70215ZM22 33.876C21.1959 33.876 20.4099 33.6375 19.7414 33.1908C19.0728 32.7441 18.5517 32.1092 18.244 31.3663C17.9363 30.6235 17.8558 29.806 18.0127 29.0174C18.1696 28.2288 18.5567 27.5044 19.1253 26.9359C19.6939 26.3673 20.4183 25.9801 21.2069 25.8232C21.9955 25.6664 22.8129 25.7469 23.5558 26.0546C24.2986 26.3623 24.9336 26.8834 25.3803 27.5519C25.827 28.2205 26.0654 29.0065 26.0654 29.8105C26.0641 30.8884 25.6354 31.9217 24.8733 32.6838C24.1111 33.4459 23.0778 33.8747 22 33.876ZM22 27.3076C21.505 27.3076 21.0211 27.4544 20.6094 27.7294C20.1978 28.0045 19.877 28.3954 19.6876 28.8527C19.4982 29.3101 19.4486 29.8133 19.5452 30.2988C19.6417 30.7844 19.8801 31.2303 20.2302 31.5804C20.5802 31.9304 21.0262 32.1688 21.5117 32.2654C21.9972 32.362 22.5005 32.3124 22.9578 32.123C23.4152 31.9335 23.8061 31.6127 24.0811 31.2011C24.3561 30.7895 24.5029 30.3056 24.5029 29.8105C24.5022 29.147 24.2382 28.5108 23.769 28.0416C23.2998 27.5723 22.6636 27.3084 22 27.3076Z" fill="#00295C"/>
<path d="M27.7227 39.6016H16.2773C16.0701 39.6016 15.8714 39.5193 15.7249 39.3727C15.5784 39.2262 15.4961 39.0275 15.4961 38.8203C15.4961 37.0954 16.1813 35.4411 17.401 34.2214C18.6208 33.0016 20.2751 32.3164 22 32.3164C23.7249 32.3164 25.3792 33.0016 26.599 34.2214C27.8187 35.4411 28.5039 37.0954 28.5039 38.8203C28.5039 39.0275 28.4216 39.2262 28.2751 39.3727C28.1286 39.5193 27.9299 39.6016 27.7227 39.6016ZM17.1172 38.0391H26.8828C26.7004 36.8751 26.1082 35.8145 25.2129 35.0486C24.3177 34.2826 23.1782 33.8617 22 33.8617C20.8218 33.8617 19.6823 34.2826 18.7871 35.0486C17.8918 35.8145 17.2996 36.8751 17.1172 38.0391Z" fill="#00295C"/>
<path d="M7.10156 40.0313C6.29722 40.0314 5.51089 39.7931 4.84202 39.3463C4.17316 38.8996 3.6518 38.2645 3.34391 37.5214C3.03601 36.7784 2.9554 35.9607 3.11227 35.1718C3.26914 34.3829 3.65645 33.6582 4.2252 33.0895C4.79396 32.5207 5.51861 32.1334 6.30751 31.9765C7.09641 31.8197 7.91411 31.9003 8.65719 32.2082C9.40026 32.5161 10.0353 33.0374 10.4821 33.7063C10.9288 34.3751 11.1672 35.1615 11.167 35.9658C11.1657 37.0436 10.737 38.077 9.97483 38.8391C9.21269 39.6012 8.17939 40.03 7.10156 40.0313ZM7.10156 33.4619C6.6063 33.4617 6.1221 33.6084 5.7102 33.8834C5.29831 34.1584 4.97722 34.5494 4.78756 35.0069C4.5979 35.4645 4.54817 35.9679 4.64467 36.4537C4.74118 36.9395 4.97957 37.3857 5.32971 37.736C5.67985 38.0863 6.126 38.3249 6.61174 38.4215C7.09748 38.5182 7.60098 38.4687 8.05857 38.2792C8.51615 38.0897 8.90727 37.7688 9.18244 37.357C9.45762 36.9452 9.60449 36.4611 9.60449 35.9658C9.60398 35.3021 9.34014 34.6656 8.87089 34.1962C8.40164 33.7268 7.76531 33.4627 7.10156 33.4619Z" fill="#00295C"/>
<path d="M12.8203 45.7539H1.37793C1.17073 45.7539 0.972015 45.6716 0.825502 45.5251C0.678989 45.3786 0.59668 45.1799 0.59668 44.9727C0.643097 43.279 1.34853 41.6702 2.56292 40.4887C3.7773 39.3071 5.40478 38.646 7.09912 38.646C8.79346 38.646 10.4209 39.3071 11.6353 40.4887C12.8497 41.6702 13.5551 43.279 13.6016 44.9727C13.6016 45.1799 13.5193 45.3786 13.3727 45.5251C13.2262 45.6716 13.0275 45.7539 12.8203 45.7539ZM2.22168 44.1914H11.9814C11.7952 43.0313 11.2017 41.9755 10.3074 41.2133C9.41311 40.4512 8.27656 40.0326 7.10156 40.0326C5.92657 40.0326 4.79001 40.4512 3.89573 41.2133C3.00145 41.9755 2.40795 43.0313 2.22168 44.1914Z" fill="#00295C"/>
<path d="M36.8984 40.0313C36.0941 40.0314 35.3078 39.7931 34.6389 39.3463C33.97 38.8996 33.4487 38.2645 33.1408 37.5214C32.8329 36.7784 32.7523 35.9607 32.9091 35.1718C33.066 34.3829 33.4533 33.6582 34.0221 33.0895C34.5908 32.5207 35.3155 32.1334 36.1044 31.9765C36.8933 31.8197 37.711 31.9003 38.4541 32.2082C39.1971 32.5161 39.8322 33.0374 40.279 33.7063C40.7257 34.3751 40.9641 35.1615 40.9639 35.9658C40.9626 37.0436 40.5338 38.077 39.7717 38.8391C39.0096 39.6012 37.9763 40.03 36.8984 40.0313ZM36.8984 33.4619C36.4032 33.4617 35.919 33.6084 35.5071 33.8834C35.0952 34.1584 34.7741 34.5494 34.5844 35.0069C34.3948 35.4645 34.345 35.9679 34.4415 36.4537C34.5381 36.9395 34.7765 37.3857 35.1266 37.736C35.4767 38.0863 35.9229 38.3249 36.4086 38.4215C36.8944 38.5182 37.3979 38.4687 37.8554 38.2792C38.313 38.0897 38.7041 37.7688 38.9793 37.357C39.2545 36.9452 39.4014 36.4611 39.4014 35.9658C39.4009 35.3021 39.137 34.6656 38.6678 34.1962C38.1985 33.7268 37.5622 33.4627 36.8984 33.4619Z" fill="#00295C"/>
<path d="M42.6221 45.7539H31.1797C30.9725 45.7539 30.7738 45.6716 30.6273 45.5251C30.4807 45.3786 30.3984 45.1799 30.3984 44.9727C30.4194 43.2614 31.1139 41.6273 32.3315 40.4246C33.549 39.2219 35.1914 38.5475 36.9028 38.5475C38.6142 38.5475 40.2567 39.2219 41.4742 40.4246C42.6917 41.6273 43.3863 43.2614 43.4072 44.9727C43.4072 45.0756 43.3869 45.1775 43.3474 45.2725C43.3079 45.3676 43.25 45.4539 43.177 45.5265C43.1041 45.5991 43.0175 45.6565 42.9222 45.6956C42.827 45.7346 42.725 45.7544 42.6221 45.7539ZM32.0186 44.1914H41.7783C41.592 43.0313 40.9986 41.9755 40.1043 41.2133C39.21 40.4512 38.0734 40.0325 36.8984 40.0325C35.7234 40.0325 34.5869 40.4512 33.6926 41.2133C32.7983 41.9755 32.2048 43.0313 32.0186 44.1914Z" fill="#00295C"/>
<path d="M7.10156 30.6064C6.89436 30.6064 6.69565 30.5241 6.54913 30.3776C6.40262 30.2311 6.32031 30.0324 6.32031 29.8252V25.8525C6.32083 25.3163 6.53408 24.8022 6.91325 24.423C7.29242 24.0438 7.80654 23.8306 8.34277 23.8301H13.8057C14.0129 23.8301 14.2116 23.9124 14.3581 24.0589C14.5046 24.2054 14.5869 24.4041 14.5869 24.6113C14.5869 24.8185 14.5046 25.0172 14.3581 25.1638C14.2116 25.3103 14.0129 25.3926 13.8057 25.3926H8.34277C8.22078 25.3926 8.10379 25.441 8.01753 25.5273C7.93127 25.6136 7.88281 25.7305 7.88281 25.8525V29.8252C7.88281 30.0324 7.8005 30.2311 7.65399 30.3776C7.50748 30.5241 7.30876 30.6064 7.10156 30.6064Z" fill="#00295C"/>
<path d="M7.10173 30.6064C6.92123 30.6065 6.74628 30.544 6.60661 30.4297L3.87224 28.1953C3.71696 28.0626 3.61985 27.8743 3.60172 27.6708C3.58359 27.4673 3.64588 27.2648 3.77525 27.1067C3.90462 26.9486 4.09077 26.8475 4.29382 26.825C4.49686 26.8025 4.70064 26.8604 4.86149 26.9863L7.0988 28.8164L9.33513 26.9863C9.41419 26.9187 9.50595 26.8676 9.60502 26.836C9.7041 26.8043 9.8085 26.7928 9.9121 26.802C10.0157 26.8112 10.1164 26.8411 10.2083 26.8897C10.3003 26.9384 10.3815 27.0049 10.4474 27.0854C10.5133 27.1659 10.5624 27.2588 10.5919 27.3585C10.6214 27.4582 10.6307 27.5629 10.6193 27.6662C10.6078 27.7696 10.5758 27.8697 10.5252 27.9605C10.4746 28.0514 10.4063 28.1312 10.3244 28.1953L7.59001 30.4297C7.45217 30.5426 7.27988 30.6049 7.10173 30.6064ZM36.8986 30.6064C36.6914 30.6064 36.4927 30.5241 36.3462 30.3776C36.1997 30.2311 36.1174 30.0324 36.1174 29.8252V25.8525C36.1174 25.7305 36.0689 25.6136 35.9826 25.5273C35.8964 25.441 35.7794 25.3926 35.6574 25.3926H30.1945C29.9873 25.3926 29.7886 25.3103 29.6421 25.1638C29.4956 25.0172 29.4133 24.8185 29.4133 24.6113C29.4133 24.4041 29.4956 24.2054 29.6421 24.0589C29.7886 23.9124 29.9873 23.8301 30.1945 23.8301H35.6574C36.1936 23.8306 36.7077 24.0438 37.0869 24.423C37.4661 24.8022 37.6793 25.3163 37.6799 25.8525V29.8252C37.6799 30.0324 37.5975 30.2311 37.451 30.3776C37.3045 30.5241 37.1058 30.6064 36.8986 30.6064Z" fill="#00295C"/>
<path d="M36.8983 30.6064C36.7181 30.6062 36.5435 30.5438 36.4041 30.4297L33.6698 28.1953C33.5879 28.1312 33.5196 28.0513 33.469 27.9605C33.4183 27.8696 33.3863 27.7696 33.3749 27.6662C33.3634 27.5628 33.3727 27.4582 33.4022 27.3585C33.4317 27.2587 33.4809 27.1659 33.5467 27.0854C33.6126 27.0049 33.6939 26.9384 33.7858 26.8897C33.8777 26.841 33.9784 26.8112 34.082 26.802C34.1856 26.7927 34.29 26.8043 34.3891 26.8359C34.4882 26.8676 34.58 26.9187 34.659 26.9863L36.8953 28.8164L39.1326 26.9863C39.212 26.9212 39.3035 26.8723 39.4017 26.8425C39.5 26.8127 39.6032 26.8025 39.7054 26.8126C39.8076 26.8226 39.9068 26.8527 39.9974 26.9011C40.0879 26.9495 40.1681 27.0153 40.2332 27.0947C40.2984 27.1741 40.3473 27.2655 40.3771 27.3638C40.4069 27.4621 40.417 27.5652 40.407 27.6674C40.3969 27.7696 40.3668 27.8689 40.3184 27.9594C40.27 28.05 40.2042 28.1301 40.1248 28.1953L37.3905 30.4306C37.2514 30.544 37.0777 30.6061 36.8983 30.6064Z" fill="#00295C"/>
</svg>
