<svg width="16" height="19" viewBox="0 0 16 19" fill="none" xmlns="http://www.w3.org/2000/svg">
<path fill-rule="evenodd" clip-rule="evenodd" d="M6.29931 12.6943C6.19931 13.1943 5.99929 13.7943 5.89929 14.2943C5.71841 14.8827 5.58462 15.4846 5.49927 16.0943C5.43955 16.6871 5.26999 17.2636 4.99927 17.7943C4.86026 18.1846 4.61846 18.5301 4.29931 18.7943C4.21964 18.8678 4.12399 18.9218 4.0199 18.952C3.9158 18.9822 3.80611 18.9879 3.69946 18.9685C3.59281 18.9491 3.49219 18.9052 3.40539 18.8403C3.3186 18.7753 3.24804 18.6911 3.19934 18.5943C3.05285 18.2074 2.95211 17.8046 2.89929 17.3943C2.92724 16.5475 3.06165 15.7076 3.29931 14.8943C3.79931 12.9943 4.19934 11.0943 4.69934 9.1943C4.7143 9.05334 4.6789 8.91163 4.59936 8.7943C4.26955 7.92988 4.2343 6.98074 4.49927 6.0943C4.60751 5.70214 4.80992 5.34232 5.08874 5.04607C5.36757 4.74982 5.71448 4.52609 6.09936 4.3943C6.31883 4.30978 6.55598 4.28191 6.78906 4.31326C7.02214 4.34462 7.24365 4.43418 7.43298 4.57369C7.62231 4.71319 7.77344 4.89815 7.87243 5.11148C7.97143 5.32481 8.01498 5.55964 7.99927 5.7943C7.96294 6.50934 7.82844 7.21597 7.59936 7.8943C7.39936 8.4943 7.29936 9.0943 7.09936 9.6943C6.97303 10.0465 6.93851 10.4251 6.99927 10.7943C7.13696 11.2257 7.4243 11.5937 7.80932 11.8321C8.19435 12.0704 8.65184 12.1634 9.09936 12.0943C9.86425 11.9556 10.5453 11.5254 10.9993 10.8943C11.5492 10.1171 11.9245 9.23016 12.0994 8.2943C12.3154 7.37768 12.3829 6.43232 12.2993 5.4943C12.2371 4.82991 12.0009 4.19362 11.6147 3.64944C11.2285 3.10525 10.706 2.67236 10.0994 2.3943C9.22363 1.99022 8.25965 1.81495 7.29773 1.88491C6.33581 1.95486 5.40741 2.26776 4.59936 2.7943C3.96149 3.20742 3.41796 3.75053 3.00439 4.38812C2.59082 5.02571 2.31649 5.74341 2.19934 6.4943C2.06603 7.39259 2.24236 8.30951 2.69934 9.0943C2.70984 9.18143 2.74311 9.26427 2.79577 9.33449C2.84844 9.4047 2.91855 9.45982 2.99927 9.4943C3.0801 9.64784 3.11493 9.82148 3.09936 9.9943C2.98513 10.2817 2.91754 10.5856 2.89929 10.8943C2.79929 11.1943 2.59934 11.3943 2.19934 11.1943C1.62504 10.9403 1.13813 10.523 0.799314 9.9943C0.380338 9.31251 0.118087 8.54612 0.0316143 7.75056C-0.0548588 6.95501 0.036607 6.15018 0.299314 5.3943C0.554679 4.39494 1.02777 3.46437 1.68469 2.66915C2.34161 1.87393 3.16618 1.23371 4.09936 0.794297C6.17938 -0.148818 8.54234 -0.256225 10.6993 0.494297C11.6572 0.806725 12.5278 1.3409 13.2402 2.05335C13.9527 2.7658 14.4869 3.6364 14.7993 4.5943C15.066 5.43386 15.1344 6.32382 14.9993 7.1943C14.9974 8.41795 14.688 9.6215 14.0994 10.6943C13.7953 11.384 13.3552 12.0051 12.8053 12.5206C12.2554 13.0361 11.6071 13.4353 10.8993 13.6943C9.91892 14.1323 8.80588 14.1682 7.79931 13.7943C7.50219 13.7186 7.22412 13.5817 6.98303 13.3923C6.74194 13.2028 6.54311 12.9651 6.39929 12.6943H6.29931Z" fill="white"/>
</svg>
