<svg width="22" height="20" viewBox="0 0 22 20" fill="none" xmlns="http://www.w3.org/2000/svg">
<path d="M12.211 1.10215C11.7158 0.0987582 10.285 0.0987682 9.7898 1.10215L7.43183 5.87987L2.1593 6.64601C1.052 6.80691 0.609869 8.1677 1.41111 8.9487L5.22635 12.6676L4.32569 17.9189C4.13655 19.0217 5.29408 19.8627 6.28448 19.342L11.0004 16.8627L15.7163 19.342C16.7067 19.8627 17.8642 19.0217 17.675 17.9189L16.7744 12.6676L20.5896 8.9487C21.3909 8.1677 20.9487 6.80691 19.8414 6.64601L14.5689 5.87987L12.211 1.10215ZM0.164379 1.78102C-0.0943822 2.10446 -0.0419411 2.57643 0.281509 2.83519L2.78151 4.83519C3.10495 5.09395 3.57692 5.04151 3.83568 4.71806C4.09444 4.39461 4.042 3.92265 3.71855 3.66389L1.21855 1.66389C0.895099 1.40513 0.423129 1.45757 0.164379 1.78102ZM21.8357 16.2181C22.0945 15.8946 22.042 15.4226 21.7186 15.1639L19.2186 13.1639C18.8951 12.9051 18.4232 12.9576 18.1644 13.281C17.9056 13.6045 17.9581 14.0764 18.2815 14.3352L20.7815 16.3352C21.105 16.5939 21.5769 16.5415 21.8357 16.2181ZM0.281509 15.1639C-0.0419411 15.4226 -0.0943822 15.8946 0.164379 16.2181C0.423129 16.5415 0.895099 16.5939 1.21855 16.3352L3.71855 14.3352C4.042 14.0764 4.09444 13.6045 3.83568 13.281C3.57692 12.9576 3.10495 12.9051 2.78151 13.1639L0.281509 15.1639ZM21.8357 1.78102C22.0945 2.10446 22.042 2.57643 21.7186 2.83519L19.2186 4.83519C18.8951 5.09395 18.4232 5.04151 18.1644 4.71806C17.9056 4.39461 17.9581 3.92265 18.2815 3.66389L20.7815 1.66389C21.105 1.40513 21.5769 1.45757 21.8357 1.78102Z" fill="#00295C"/>
</svg>
