<svg width="19" height="15" viewBox="0 0 19 15" fill="none" xmlns="http://www.w3.org/2000/svg">
<path d="M18.3992 1.89424C17.7789 2.21007 17.0951 2.38103 16.3992 2.39424C17.1303 1.95802 17.6937 1.28893 17.9991 0.49424H17.8992C17.2073 0.863502 16.4667 1.13285 15.6992 1.29424C14.9607 0.540582 13.9542 0.109267 12.8992 0.0942385C11.9084 0.0938954 10.9568 0.480496 10.2469 1.17165C9.53712 1.8628 9.12531 2.80385 9.09924 3.79424C9.09924 4.09424 9.19922 4.39424 9.19922 4.69424C7.71269 4.62691 6.25742 4.24439 4.92993 3.57202C3.60244 2.89966 2.43297 1.95281 1.49915 0.794239H1.39917C1.08098 1.37769 0.909387 2.02974 0.89917 2.69424C0.925904 3.29292 1.09383 3.87678 1.38928 4.39816C1.68473 4.91955 2.0994 5.36366 2.59924 5.69424C2.59924 5.72076 2.5887 5.7462 2.56995 5.76495C2.55119 5.7837 2.52567 5.79424 2.49915 5.79424C1.94105 5.72071 1.39982 5.55157 0.89917 5.29424C0.93149 5.77288 1.03257 6.24438 1.19922 6.69424C1.43543 7.26374 1.80324 7.76912 2.27258 8.16893C2.74192 8.56874 3.29936 8.85158 3.89917 8.99424H2.19922C2.46175 9.71575 2.93662 10.3408 3.5614 10.7871C4.18618 11.2334 4.93156 11.4799 5.69922 11.4942C4.35452 12.4512 2.74959 12.9746 1.09924 12.9942H0.199219C1.94415 14.0612 3.95399 14.6156 5.99915 14.5942C8.56078 14.6517 11.0534 13.7614 12.9991 12.0942C14.7318 10.5811 15.9252 8.54529 16.3992 6.29424C16.5972 5.57765 16.6982 4.8377 16.6992 4.09424V3.79424C17.3949 3.29826 18.0032 2.68995 18.4991 1.99424L18.3992 1.89424Z" fill="white"/>
</svg>
