<svg width="19" height="19" viewBox="0 0 19 19" fill="none" xmlns="http://www.w3.org/2000/svg">
<path d="M2.20833 7.41667C2.20833 4.54019 4.54019 2.20833 7.41667 2.20833C10.2931 2.20833 12.625 4.54019 12.625 7.41667C12.625 10.2931 10.2931 12.625 7.41667 12.625C4.54019 12.625 2.20833 10.2931 2.20833 7.41667ZM7.41667 0.125C3.38959 0.125 0.125 3.38959 0.125 7.41667C0.125 11.4438 3.38959 14.7083 7.41667 14.7083C9.05448 14.7083 10.5663 14.1683 11.7835 13.2567L17.0968 18.5699C17.5035 18.9767 18.1631 18.9767 18.5699 18.5699C18.9767 18.1631 18.9767 17.5035 18.5699 17.0968L13.2567 11.7835C14.1683 10.5663 14.7083 9.05448 14.7083 7.41667C14.7083 3.38959 11.4438 0.125 7.41667 0.125Z" fill="black"/>
</svg>
